<svg width="32" height="32" viewBox="0 0 32 32" fill="none" xmlns="http://www.w3.org/2000/svg">
<path d="M16 29.5111C23.462 29.5111 29.5111 23.462 29.5111 16C29.5111 8.53802 23.462 2.48889 16 2.48889C8.53802 2.48889 2.48889 8.53802 2.48889 16C2.48889 23.462 8.53802 29.5111 16 29.5111Z" fill="#002E5D"/>
<path d="M16 9.60001L17.6 14.2222H22.4L18.6666 17.2445L20.0889 22.0445L16 19.2L11.9111 22.0445L13.3333 17.2445L9.59998 14.2222H14.4L16 9.60001Z" fill="white"/>
<path d="M25.9556 25.9556C28.312 23.5991 29.5111 20.5107 29.5111 17.4222C29.5111 14.3338 28.312 11.2453 25.9556 8.88889" stroke="#FF3B30" stroke-width="2.84444" stroke-linecap="round"/>
<path d="M25.9555 28.8C27.5265 28.8 28.8 27.5265 28.8 25.9556C28.8 24.3846 27.5265 23.1111 25.9555 23.1111C24.3846 23.1111 23.1111 24.3846 23.1111 25.9556C23.1111 27.5265 24.3846 28.8 25.9555 28.8Z" fill="#FF3B30"/>
</svg>
