<svg width="119" height="102" viewBox="0 0 119 102" fill="none" xmlns="http://www.w3.org/2000/svg">
<g clip-path="url(#clip0_1_37)">
<path d="M59 61.4C75.7895 61.4 89.4 47.7895 89.4 31C89.4 14.2105 75.7895 0.599998 59 0.599998C42.2106 0.599998 28.6 14.2105 28.6 31C28.6 47.7895 42.2106 61.4 59 61.4Z" fill="#002E5D"/>
<path d="M59 16.6L62.6 27H73.4L65 33.8L68.2 44.6L59 38.2L49.8 44.6L53 33.8L44.6 27H55.4L59 16.6Z" fill="white"/>
<path d="M81.4 53.4C86.7019 48.0981 89.4 41.149 89.4 34.2C89.4 27.251 86.7019 20.3019 81.4 15" stroke="#FF3B30" stroke-width="6.4" stroke-linecap="round"/>
<path d="M81.4 59.8C84.9346 59.8 87.8 56.9346 87.8 53.4C87.8 49.8654 84.9346 47 81.4 47C77.8654 47 75 49.8654 75 53.4C75 56.9346 77.8654 59.8 81.4 59.8Z" fill="#FF3B30"/>
<path d="M10.1619 88.3977H13.1847L15.3125 91.1719L16.3168 92.4048L19.7074 96.8295H16.5653L14.2983 93.8764L13.5227 92.8026L10.1619 88.3977ZM20.3636 84.8182C20.3636 86.9924 19.9659 88.8617 19.1705 90.4261C18.375 91.9839 17.2846 93.1837 15.8991 94.0256C14.5204 94.8608 12.9527 95.2784 11.196 95.2784C9.43277 95.2784 7.85843 94.8608 6.47301 94.0256C5.09422 93.1837 4.0071 91.9806 3.21165 90.4162C2.41619 88.8518 2.01847 86.9858 2.01847 84.8182C2.01847 82.6439 2.41619 80.7779 3.21165 79.2202C4.0071 77.6558 5.09422 76.456 6.47301 75.6207C7.85843 74.7789 9.43277 74.358 11.196 74.358C12.9527 74.358 14.5204 74.7789 15.8991 75.6207C17.2846 76.456 18.375 77.6558 19.1705 79.2202C19.9659 80.7779 20.3636 82.6439 20.3636 84.8182ZM17.321 84.8182C17.321 83.161 17.0526 81.7656 16.5156 80.6321C15.9853 79.492 15.2562 78.6302 14.3281 78.0469C13.4067 77.4569 12.3627 77.1619 11.196 77.1619C10.0227 77.1619 8.97538 77.4569 8.05398 78.0469C7.13258 78.6302 6.40341 79.492 5.86648 80.6321C5.33617 81.7656 5.07102 83.161 5.07102 84.8182C5.07102 86.4754 5.33617 87.8741 5.86648 89.0142C6.40341 90.1477 7.13258 91.0095 8.05398 91.5994C8.97538 92.1828 10.0227 92.4744 11.196 92.4744C12.3627 92.4744 13.4067 92.1828 14.3281 91.5994C15.2562 91.0095 15.9853 90.1477 16.5156 89.0142C17.0526 87.8741 17.321 86.4754 17.321 84.8182ZM24.1942 95V74.6364H27.1673V82.2031H27.3462C27.5186 81.8849 27.7672 81.517 28.092 81.0994C28.4168 80.6818 28.8675 80.3172 29.4442 80.0057C30.021 79.6875 30.7833 79.5284 31.7312 79.5284C32.9641 79.5284 34.0645 79.84 35.0323 80.4631C36.0001 81.0862 36.7591 81.9844 37.3093 83.1577C37.8661 84.331 38.1445 85.7429 38.1445 87.3935C38.1445 89.044 37.8694 90.4593 37.3192 91.6392C36.7691 92.8125 36.0134 93.7173 35.0522 94.3537C34.091 94.9834 32.994 95.2983 31.761 95.2983C30.833 95.2983 30.074 95.1425 29.484 94.831C28.9007 94.5194 28.4433 94.1548 28.1119 93.7372C27.7804 93.3196 27.5252 92.9484 27.3462 92.6236H27.0977V95H24.1942ZM27.1076 87.3636C27.1076 88.4375 27.2634 89.3788 27.5749 90.1875C27.8865 90.9962 28.3372 91.6293 28.9272 92.0866C29.5172 92.5374 30.2397 92.7628 31.0948 92.7628C31.9831 92.7628 32.7255 92.5275 33.3221 92.0568C33.9187 91.5795 34.3694 90.9332 34.6744 90.1179C34.9859 89.3026 35.1417 88.3845 35.1417 87.3636C35.1417 86.3561 34.9892 85.4512 34.6843 84.6491C34.386 83.8471 33.9353 83.214 33.332 82.75C32.7354 82.286 31.9897 82.054 31.0948 82.054C30.2331 82.054 29.5039 82.276 28.9073 82.7202C28.3174 83.1643 27.8699 83.7841 27.565 84.5795C27.2601 85.375 27.1076 86.303 27.1076 87.3636ZM47.9162 95.3082C46.4844 95.3082 45.2348 94.9801 44.1676 94.3239C43.1004 93.6676 42.2718 92.7495 41.6818 91.5696C41.0919 90.3897 40.7969 89.0109 40.7969 87.4332C40.7969 85.849 41.0919 84.4635 41.6818 83.277C42.2718 82.0904 43.1004 81.169 44.1676 80.5128C45.2348 79.8565 46.4844 79.5284 47.9162 79.5284C49.348 79.5284 50.5975 79.8565 51.6648 80.5128C52.732 81.169 53.5606 82.0904 54.1506 83.277C54.7405 84.4635 55.0355 85.849 55.0355 87.4332C55.0355 89.0109 54.7405 90.3897 54.1506 91.5696C53.5606 92.7495 52.732 93.6676 51.6648 94.3239C50.5975 94.9801 49.348 95.3082 47.9162 95.3082ZM47.9261 92.8125C48.8542 92.8125 49.6231 92.5672 50.233 92.0767C50.8428 91.5862 51.2936 90.9332 51.5852 90.1179C51.8835 89.3026 52.0327 88.4044 52.0327 87.4233C52.0327 86.4489 51.8835 85.554 51.5852 84.7386C51.2936 83.9167 50.8428 83.2571 50.233 82.7599C49.6231 82.2628 48.8542 82.0142 47.9261 82.0142C46.9915 82.0142 46.2159 82.2628 45.5994 82.7599C44.9896 83.2571 44.5355 83.9167 44.2372 84.7386C43.9455 85.554 43.7997 86.4489 43.7997 87.4233C43.7997 88.4044 43.9455 89.3026 44.2372 90.1179C44.5355 90.9332 44.9896 91.5862 45.5994 92.0767C46.2159 92.5672 46.9915 92.8125 47.9261 92.8125ZM61.3271 74.6364V95H58.354V74.6364H61.3271ZM69.7713 95.3381C68.8035 95.3381 67.9285 95.1591 67.1463 94.8011C66.3641 94.4366 65.7443 93.9096 65.2869 93.2202C64.8362 92.5308 64.6108 91.6856 64.6108 90.6847C64.6108 89.8229 64.7765 89.1136 65.108 88.5568C65.4394 88 65.8868 87.5592 66.4503 87.2344C67.0137 86.9096 67.6435 86.6643 68.3395 86.4986C69.0355 86.3329 69.7448 86.2069 70.4673 86.1207C71.3821 86.0147 72.1245 85.9285 72.6946 85.8622C73.2647 85.7893 73.679 85.6733 73.9375 85.5142C74.196 85.3551 74.3253 85.0966 74.3253 84.7386V84.669C74.3253 83.8007 74.08 83.1278 73.5895 82.6506C73.1056 82.1733 72.383 81.9347 71.4219 81.9347C70.4209 81.9347 69.6321 82.1567 69.0554 82.6009C68.4853 83.0384 68.0909 83.5256 67.8722 84.0625L65.0781 83.4261C65.4096 82.4981 65.8935 81.7491 66.5298 81.179C67.1728 80.6023 67.9119 80.1847 68.7472 79.9261C69.5824 79.661 70.4607 79.5284 71.3821 79.5284C71.992 79.5284 72.6383 79.6013 73.321 79.7472C74.0104 79.8864 74.6534 80.1449 75.25 80.5227C75.8532 80.9006 76.3471 81.4408 76.7315 82.1435C77.116 82.8395 77.3082 83.7443 77.3082 84.858V95H74.4048V92.9119H74.2855C74.0933 93.2964 73.8049 93.6742 73.4205 94.0455C73.036 94.4167 72.5421 94.7249 71.9389 94.9702C71.3357 95.2154 70.6132 95.3381 69.7713 95.3381ZM70.4176 92.9517C71.2396 92.9517 71.9422 92.7893 72.5256 92.4645C73.1155 92.1397 73.563 91.7154 73.8679 91.1918C74.1795 90.6615 74.3352 90.0947 74.3352 89.4915V87.5227C74.2292 87.6288 74.0237 87.7282 73.7188 87.821C73.4205 87.9072 73.0791 87.9834 72.6946 88.0497C72.3101 88.1094 71.9356 88.1657 71.571 88.2188C71.2064 88.2652 70.9015 88.3049 70.6562 88.3381C70.0795 88.411 69.5526 88.5336 69.0753 88.706C68.6046 88.8783 68.2268 89.1269 67.9418 89.4517C67.6634 89.7699 67.5241 90.1941 67.5241 90.7244C67.5241 91.4602 67.7959 92.017 68.3395 92.3949C68.883 92.7661 69.5758 92.9517 70.4176 92.9517ZM87.7013 95.3082C86.2231 95.3082 84.9504 94.9735 83.8832 94.304C82.8226 93.6278 82.0072 92.6965 81.4371 91.5099C80.8671 90.3234 80.582 88.9645 80.582 87.4332C80.582 85.8821 80.8737 84.5133 81.457 83.3267C82.0404 82.1335 82.8623 81.2022 83.9229 80.5327C84.9835 79.8632 86.2331 79.5284 87.6715 79.5284C88.8316 79.5284 89.8656 79.7438 90.7738 80.1747C91.6819 80.599 92.4144 81.1955 92.9712 81.9645C93.5347 82.7334 93.8694 83.6316 93.9755 84.6591H91.082C90.9229 83.9432 90.5584 83.3267 89.9883 82.8097C89.4248 82.2926 88.6692 82.0341 87.7212 82.0341C86.8926 82.0341 86.1668 82.2528 85.5437 82.6903C84.9272 83.1212 84.4466 83.7377 84.1019 84.5398C83.7572 85.3352 83.5849 86.2765 83.5849 87.3636C83.5849 88.4773 83.7539 89.4384 84.092 90.2472C84.43 91.0559 84.9073 91.6823 85.5238 92.1264C86.1469 92.5705 86.8794 92.7926 87.7212 92.7926C88.2847 92.7926 88.7951 92.6899 89.2525 92.4844C89.7165 92.2723 90.1043 91.9706 90.4158 91.5795C90.734 91.1884 90.9561 90.7178 91.082 90.1676H93.9755C93.8694 91.1553 93.5479 92.0369 93.011 92.8125C92.4741 93.5881 91.7549 94.1979 90.8533 94.642C89.9585 95.0862 88.9078 95.3082 87.7013 95.3082ZM103.737 95.3082C102.232 95.3082 100.937 94.9867 99.8494 94.3438C98.7689 93.6941 97.9337 92.7827 97.3438 91.6094C96.7604 90.4295 96.4688 89.0473 96.4688 87.4631C96.4688 85.8987 96.7604 84.5199 97.3438 83.3267C97.9337 82.1335 98.7557 81.2022 99.8097 80.5327C100.87 79.8632 102.11 79.5284 103.528 79.5284C104.39 79.5284 105.225 79.6709 106.034 79.956C106.843 80.241 107.569 80.6884 108.212 81.2983C108.855 81.9081 109.362 82.7003 109.733 83.6747C110.104 84.6425 110.29 85.8191 110.29 87.2045V88.2585H98.1491V86.0312H107.376C107.376 85.2491 107.217 84.5563 106.899 83.9531C106.581 83.3433 106.134 82.8627 105.557 82.5114C104.987 82.16 104.317 81.9844 103.548 81.9844C102.713 81.9844 101.984 82.1899 101.361 82.6009C100.744 83.0052 100.267 83.5355 99.929 84.1918C99.5975 84.8414 99.4318 85.5473 99.4318 86.3097V88.0497C99.4318 89.0705 99.6108 89.9389 99.9688 90.6548C100.333 91.3707 100.84 91.9176 101.49 92.2955C102.14 92.6667 102.899 92.8523 103.767 92.8523C104.33 92.8523 104.844 92.7727 105.308 92.6136C105.772 92.4479 106.173 92.2027 106.511 91.8778C106.849 91.553 107.108 91.152 107.287 90.6747L110.101 91.1818C109.875 92.0104 109.471 92.7363 108.888 93.3594C108.311 93.9759 107.585 94.4564 106.71 94.8011C105.842 95.1392 104.851 95.3082 103.737 95.3082ZM116.561 74.6364V95H113.588V74.6364H116.561Z" fill="#002E5D"/>
</g>
<defs>
<clipPath id="clip0_1_37">
<rect width="119" height="102" fill="white"/>
</clipPath>
</defs>
</svg>
