<svg width="199" height="54" viewBox="0 0 199 54" fill="none" xmlns="http://www.w3.org/2000/svg">
<g clip-path="url(#clip0_1_20)">
<path d="M25.6606 53.2C39.5304 53.2 50.7741 41.2908 50.7741 26.6C50.7741 11.9092 39.5304 0 25.6606 0C11.7908 0 0.547058 11.9092 0.547058 26.6C0.547058 41.2908 11.7908 53.2 25.6606 53.2Z" fill="#002E5D"/>
<path d="M25.6606 14L28.6346 23.1H37.5565L30.6172 29.05L33.2607 38.5L25.6606 32.9L18.0604 38.5L20.704 29.05L13.7647 23.1H22.6866L25.6606 14Z" fill="white"/>
<path d="M44.1653 46.2C48.5452 41.5608 50.7741 35.4804 50.7741 29.4C50.7741 23.3196 48.5452 17.2392 44.1653 12.6" stroke="#FF3B30" stroke-width="5.6" stroke-linecap="round"/>
<path d="M44.1653 51.8C47.0853 51.8 49.4524 49.2928 49.4524 46.2C49.4524 43.1072 47.0853 40.6 44.1653 40.6C41.2453 40.6 38.8782 43.1072 38.8782 46.2C38.8782 49.2928 41.2453 51.8 44.1653 51.8Z" fill="#FF3B30"/>
<path d="M71.9659 30.1818H75.7841L78.0455 33.1136L79.6591 35.0227L83.5341 40H79.4432L76.8068 36.6591L75.6818 35.0682L71.9659 30.1818ZM84.0909 26.3636C84.0909 28.8712 83.6212 31.0189 82.6818 32.8068C81.75 34.5871 80.4773 35.9508 78.8636 36.8977C77.2576 37.8447 75.4356 38.3182 73.3977 38.3182C71.3598 38.3182 69.5341 37.8447 67.9205 36.8977C66.3144 35.9432 65.0417 34.5758 64.1023 32.7955C63.1705 31.0076 62.7045 28.8636 62.7045 26.3636C62.7045 23.8561 63.1705 21.7121 64.1023 19.9318C65.0417 18.1439 66.3144 16.7765 67.9205 15.8295C69.5341 14.8826 71.3598 14.4091 73.3977 14.4091C75.4356 14.4091 77.2576 14.8826 78.8636 15.8295C80.4773 16.7765 81.75 18.1439 82.6818 19.9318C83.6212 21.7121 84.0909 23.8561 84.0909 26.3636ZM79.8523 26.3636C79.8523 24.5985 79.5758 23.1098 79.0227 21.8977C78.4773 20.678 77.7197 19.7576 76.75 19.1364C75.7803 18.5076 74.6629 18.1932 73.3977 18.1932C72.1326 18.1932 71.0152 18.5076 70.0455 19.1364C69.0758 19.7576 68.3144 20.678 67.7614 21.8977C67.2159 23.1098 66.9432 24.5985 66.9432 26.3636C66.9432 28.1288 67.2159 29.6212 67.7614 30.8409C68.3144 32.053 69.0758 32.9735 70.0455 33.6023C71.0152 34.2235 72.1326 34.5341 73.3977 34.5341C74.6629 34.5341 75.7803 34.2235 76.75 33.6023C77.7197 32.9735 78.4773 32.053 79.0227 30.8409C79.5758 29.6212 79.8523 28.1288 79.8523 26.3636ZM88.108 38V14.7273H92.2216V23.4318H92.392C92.6042 23.0076 92.9034 22.5568 93.2898 22.0795C93.6761 21.5947 94.1989 21.1818 94.858 20.8409C95.517 20.4924 96.358 20.3182 97.3807 20.3182C98.7292 20.3182 99.9451 20.6629 101.028 21.3523C102.119 22.0341 102.983 23.0455 103.619 24.3864C104.263 25.7197 104.585 27.3561 104.585 29.2955C104.585 31.2121 104.271 32.8409 103.642 34.1818C103.013 35.5227 102.157 36.5455 101.074 37.25C99.9905 37.9545 98.7633 38.3068 97.392 38.3068C96.392 38.3068 95.5625 38.1402 94.9034 37.8068C94.2443 37.4735 93.714 37.072 93.3125 36.6023C92.9186 36.125 92.6117 35.6742 92.392 35.25H92.1534V38H88.108ZM92.142 29.2727C92.142 30.4015 92.3011 31.3902 92.6193 32.2386C92.9451 33.0871 93.411 33.75 94.017 34.2273C94.6307 34.697 95.3731 34.9318 96.2443 34.9318C97.1534 34.9318 97.9148 34.6894 98.5284 34.2045C99.142 33.7121 99.6042 33.0417 99.9148 32.1932C100.233 31.3371 100.392 30.3636 100.392 29.2727C100.392 28.1894 100.237 27.2273 99.9261 26.3864C99.6155 25.5455 99.1534 24.8864 98.5398 24.4091C97.9261 23.9318 97.161 23.6932 96.2443 23.6932C95.3655 23.6932 94.6193 23.9242 94.0057 24.3864C93.392 24.8485 92.9261 25.4962 92.608 26.3295C92.2973 27.1629 92.142 28.1439 92.142 29.2727ZM115.696 38.3409C113.991 38.3409 112.514 37.9659 111.264 37.2159C110.014 36.4659 109.045 35.4167 108.355 34.0682C107.673 32.7197 107.332 31.1439 107.332 29.3409C107.332 27.5379 107.673 25.9583 108.355 24.6023C109.045 23.2462 110.014 22.1932 111.264 21.4432C112.514 20.6932 113.991 20.3182 115.696 20.3182C117.401 20.3182 118.878 20.6932 120.128 21.4432C121.378 22.1932 122.344 23.2462 123.026 24.6023C123.715 25.9583 124.06 27.5379 124.06 29.3409C124.06 31.1439 123.715 32.7197 123.026 34.0682C122.344 35.4167 121.378 36.4659 120.128 37.2159C118.878 37.9659 117.401 38.3409 115.696 38.3409ZM115.719 35.0455C116.643 35.0455 117.416 34.7917 118.037 34.2841C118.658 33.7689 119.12 33.0795 119.423 32.2159C119.734 31.3523 119.889 30.3902 119.889 29.3295C119.889 28.2614 119.734 27.2955 119.423 26.4318C119.12 25.5606 118.658 24.8674 118.037 24.3523C117.416 23.8371 116.643 23.5795 115.719 23.5795C114.772 23.5795 113.984 23.8371 113.355 24.3523C112.734 24.8674 112.268 25.5606 111.957 26.4318C111.654 27.2955 111.503 28.2614 111.503 29.3295C111.503 30.3902 111.654 31.3523 111.957 32.2159C112.268 33.0795 112.734 33.7689 113.355 34.2841C113.984 34.7917 114.772 35.0455 115.719 35.0455ZM131.665 14.7273V38H127.551V14.7273H131.665ZM140.918 38.3523C139.812 38.3523 138.815 38.1553 137.929 37.7614C137.05 37.3598 136.353 36.7689 135.838 35.9886C135.33 35.2083 135.077 34.2462 135.077 33.1023C135.077 32.1174 135.259 31.303 135.622 30.6591C135.986 30.0152 136.482 29.5 137.111 29.1136C137.74 28.7273 138.448 28.4356 139.236 28.2386C140.031 28.0341 140.853 27.8864 141.702 27.7955C142.724 27.6894 143.554 27.5947 144.19 27.5114C144.827 27.4205 145.289 27.2841 145.577 27.1023C145.872 26.9129 146.02 26.6212 146.02 26.2273V26.1591C146.02 25.303 145.766 24.6402 145.259 24.1705C144.751 23.7008 144.02 23.4659 143.065 23.4659C142.058 23.4659 141.259 23.6856 140.668 24.125C140.084 24.5644 139.69 25.0833 139.486 25.6818L135.645 25.1364C135.948 24.0758 136.448 23.1894 137.145 22.4773C137.842 21.7576 138.694 21.2197 139.702 20.8636C140.709 20.5 141.823 20.3182 143.043 20.3182C143.884 20.3182 144.721 20.4167 145.554 20.6136C146.387 20.8106 147.149 21.1364 147.838 21.5909C148.527 22.0379 149.08 22.6477 149.497 23.4205C149.921 24.1932 150.134 25.1591 150.134 26.3182V38H146.179V35.6023H146.043C145.793 36.0871 145.44 36.5417 144.986 36.9659C144.539 37.3826 143.974 37.7197 143.293 37.9773C142.618 38.2273 141.827 38.3523 140.918 38.3523ZM141.986 35.3295C142.812 35.3295 143.527 35.1667 144.134 34.8409C144.74 34.5076 145.205 34.0682 145.531 33.5227C145.865 32.9773 146.031 32.3826 146.031 31.7386V29.6818C145.902 29.7879 145.683 29.8864 145.372 29.9773C145.069 30.0682 144.728 30.1477 144.349 30.2159C143.971 30.2841 143.596 30.3447 143.224 30.3977C142.853 30.4508 142.531 30.4962 142.259 30.5341C141.645 30.6174 141.096 30.7538 140.611 30.9432C140.126 31.1326 139.743 31.3977 139.463 31.7386C139.183 32.072 139.043 32.5038 139.043 33.0341C139.043 33.7917 139.319 34.3636 139.872 34.75C140.425 35.1364 141.13 35.3295 141.986 35.3295ZM161.884 38.3409C160.141 38.3409 158.645 37.9583 157.395 37.1932C156.152 36.428 155.194 35.3712 154.52 34.0227C153.853 32.6667 153.52 31.1061 153.52 29.3409C153.52 27.5682 153.861 26.0038 154.543 24.6477C155.224 23.2841 156.187 22.2235 157.429 21.4659C158.679 20.7008 160.156 20.3182 161.861 20.3182C163.277 20.3182 164.531 20.5795 165.622 21.1023C166.721 21.6174 167.596 22.3485 168.247 23.2955C168.899 24.2348 169.27 25.3333 169.361 26.5909H165.429C165.27 25.75 164.891 25.0492 164.293 24.4886C163.702 23.9205 162.91 23.6364 161.918 23.6364C161.077 23.6364 160.338 23.8636 159.702 24.3182C159.065 24.7652 158.569 25.4091 158.213 26.25C157.865 27.0909 157.69 28.0985 157.69 29.2727C157.69 30.4621 157.865 31.4848 158.213 32.3409C158.562 33.1894 159.05 33.8447 159.679 34.3068C160.315 34.7614 161.062 34.9886 161.918 34.9886C162.524 34.9886 163.065 34.875 163.543 34.6477C164.027 34.4129 164.433 34.0758 164.759 33.6364C165.084 33.197 165.308 32.6629 165.429 32.0341H169.361C169.262 33.2689 168.899 34.3636 168.27 35.3182C167.641 36.2652 166.785 37.0076 165.702 37.5455C164.618 38.0758 163.346 38.3409 161.884 38.3409ZM180.466 38.3409C178.716 38.3409 177.205 37.9773 175.932 37.25C174.667 36.5152 173.693 35.4773 173.011 34.1364C172.33 32.7879 171.989 31.2008 171.989 29.375C171.989 27.5795 172.33 26.0038 173.011 24.6477C173.701 23.2841 174.663 22.2235 175.898 21.4659C177.133 20.7008 178.583 20.3182 180.25 20.3182C181.326 20.3182 182.341 20.4924 183.295 20.8409C184.258 21.1818 185.106 21.7121 185.841 22.4318C186.583 23.1515 187.167 24.0682 187.591 25.1818C188.015 26.2879 188.227 27.6061 188.227 29.1364V30.3977H173.92V27.625H184.284C184.277 26.8371 184.106 26.1364 183.773 25.5227C183.439 24.9015 182.973 24.4129 182.375 24.0568C181.784 23.7008 181.095 23.5227 180.307 23.5227C179.466 23.5227 178.727 23.7273 178.091 24.1364C177.455 24.5379 176.958 25.0682 176.602 25.7273C176.254 26.3788 176.076 27.0947 176.068 27.875V30.2955C176.068 31.3106 176.254 32.1818 176.625 32.9091C176.996 33.6288 177.515 34.1818 178.182 34.5682C178.848 34.947 179.629 35.1364 180.523 35.1364C181.121 35.1364 181.663 35.053 182.148 34.8864C182.633 34.7121 183.053 34.4583 183.409 34.125C183.765 33.7917 184.034 33.3788 184.216 32.8864L188.057 33.3182C187.814 34.3333 187.352 35.2197 186.67 35.9773C185.996 36.7273 185.133 37.3106 184.08 37.7273C183.027 38.1364 181.822 38.3409 180.466 38.3409ZM195.821 14.7273V38H191.707V14.7273H195.821Z" fill="#002E5D"/>
</g>
<defs>
<clipPath id="clip0_1_20">
<rect width="199" height="54" fill="white"/>
</clipPath>
</defs>
</svg>
